<?xml version="1.0" encoding="iso-8859-1"?>
<!-- Generator: Adobe Illustrator 22.0.1, SVG Export Plug-In . SVG Version: 6.00 Build 0)  -->
<svg version="1.1" id="Layer_1" xmlns="http://www.w3.org/2000/svg" xmlns:xlink="http://www.w3.org/1999/xlink" x="0px" y="0px"
	 viewBox="-293 -103 1000 1000" style="enable-background:new -293 -103 1000 1000;" xml:space="preserve">
<g>
	<path style="fill:#FEDD00;" d="M129.071,673.948c-46.832,0-84.933,38.101-84.933,84.933s38.101,84.933,84.933,84.933
		s84.933-38.101,84.933-84.933S175.903,673.948,129.071,673.948z M129.071,796.391c-20.683,0-37.511-16.828-37.511-37.511
		c0-20.683,16.828-37.511,37.511-37.511c20.683,0,37.511,16.828,37.511,37.511C166.582,779.565,149.754,796.391,129.071,796.391z"/>
	<path style="fill:#FEDD00;" d="M426.988,673.948c-46.832,0-84.933,38.101-84.933,84.933s38.101,84.933,84.933,84.933
		s84.933-38.101,84.933-84.933C511.921,712.05,473.82,673.948,426.988,673.948z M426.988,796.391
		c-20.683,0-37.511-16.828-37.511-37.511c0-20.683,16.828-37.511,37.511-37.511c20.683,0,37.511,16.828,37.511,37.511
		C464.499,779.565,447.671,796.391,426.988,796.391z"/>
	<path style="fill:#FEDD00;" d="M108.101,274.202h339.798c13.096,0,23.711-10.616,23.711-23.711s-10.615-23.711-23.711-23.711
		H108.101c-13.096,0-23.711,10.616-23.711,23.711C84.39,263.586,95.008,274.202,108.101,274.202z"/>
	<path style="fill:#FEDD00;" d="M429.404,349.912H126.598c-13.096,0-23.711,10.616-23.711,23.711
		c0,13.096,10.616,23.711,23.711,23.711h302.806c13.096,0,23.711-10.616,23.711-23.711
		C453.115,360.53,442.5,349.912,429.404,349.912z"/>
	<path style="fill:#FEDD00;" d="M679.194,121.132c-9.043-11.099-22.443-17.463-36.759-17.463H-96.154l-14.917-72.409
		c-3.113-15.104-13.416-27.787-27.564-33.931L-242.71-47.845c-12.014-5.219-25.978,0.294-31.19,12.306
		c-5.216,12.014,0.296,25.98,12.306,31.192l104.075,45.177l114.731,556.923c4.519,21.933,24.053,37.852,46.448,37.852h568.06
		c13.096,0,23.711-10.615,23.711-23.711c0-13.096-10.615-23.711-23.711-23.711H3.663l-13.956-67.745h586.406
		c22.393,0,41.928-15.92,46.445-37.853l66.325-321.929C691.77,146.638,688.24,132.229,679.194,121.132z M576.112,473.018H-20.063
		l-66.32-321.927l728.817,0.002L576.112,473.018z"/>
</g>
</svg>
