<svg xmlns="http://www.w3.org/2000/svg" xmlns:xlink="http://www.w3.org/1999/xlink" version="1.1" id="Layer_1" x="0px" y="0px" viewBox="0 0 150 150" style="enable-background:new 0 0 150 150;" xml:space="preserve" width="150"  height="150" ><SCRIPT xmlns="" id="allow-copy_script"/>
<g>
	<path d="M90.4,106.1c-13.1,0-26.3,0-39.4,0c-2.4,0-2.5,0-1.8,2.4c1.2,3.8,0.2,3.4,4.4,3.4c22.4,0,44.8,0,67.2,0   c2.1,0,4.3,0.1,6.4,0.4c7.1,1.2,13.5,8.8,13.4,17c-0.1,8.2-6.1,14.9-14.3,16.3c-11.7,1.9-21.5-8.1-19.2-19.7   c0.4-2.1,0.4-2.1-1.7-2.1c-15.4,0-30.9,0-46.3,0c-1.4,0-1.9,0.3-1.4,1.7c2.7,8.6-4,18-12.7,19.9c-9.5,2.1-18.6-3.6-20.3-13   c-1.6-8.9,3-16.4,11.7-19.4c1.8-0.6,1.8-1.4,1.5-2.9c-2.3-12.5-4.6-25-7-37.5c-3.4-18.3-6.8-36.6-10.1-54.8   c-0.4-2.4-0.4-2.4-2.9-2.4c-4,0-7.9,0-11.9,0c-1.2,0-1.8-0.4-1.8-1.7c0.1-2.7,0-5.5,0-8.2c0-1,0.4-1.5,1.4-1.5c7.6,0,15.3,0,22.9,0   c1.1,0,1.5,0.5,1.7,1.5c1.5,8.5,3,17.1,4.5,25.6c0.2,1.3,0.3,2.5,2.3,2.7c7.9,0.8,15.8,1.9,23.7,2.8c1.3,0.1,1.7,0.6,1.7,1.9   c-0.1,2.6,0,5.2,0,7.7c0,1.8-0.3,2-2,1.8c-7.2-0.9-14.4-1.7-21.6-2.6c-1.5-0.2-1.5,0.4-1.3,1.5c2.7,15.3,5.5,30.7,8.2,46   c0.2,1.3,0.7,1.8,2.1,1.8c24.4,0,48.9,0,73.3,0c1.3,0,1.8-0.4,2.1-1.7c2.7-11.6,5.4-23.2,8.1-34.8c0.3-1.4,0.1-1.8-1.4-2   c-6.6-0.6-13.2-1.5-19.8-2.2c-1-0.1-1.4-0.5-1.4-1.6c0-2.8,0.1-5.6,0-8.4c0-1.2,0.3-1.7,1.6-1.5c5.1,0.7,10.1,1.2,15.2,1.8   c6,0.7,12.1,1.5,18.1,2.2c2,0.2,2.1,0.3,1.6,2.2c-4.2,18.4-8.5,36.9-12.7,55.3c-0.3,1.5-0.9,2-2.5,2   C116.9,106.1,103.6,106.1,90.4,106.1z M36.2,129.2c0,3,2.2,5.4,5.1,5.4c2.9,0,5.4-2.4,5.4-5.3c0-2.9-2.4-5.3-5.2-5.3   C38.5,123.9,36.2,126.2,36.2,129.2z M129,129.3c0-2.8-2.4-5.3-5.2-5.3c-2.9,0-5.2,2.3-5.3,5.2c0,3,2.4,5.5,5.2,5.4   C126.6,134.5,129,132.1,129,129.3z"/>
	<path d="M114.3,23.3c-0.2,0.6-0.6,0.9-1,1.3c-6.2,6.3-12.5,12.5-18.8,18.7c-1.1,1.1-1.3,1.8-0.1,3c6.3,6.3,12.6,12.8,18.9,19.1   c1.1,1.1,1.1,1.7,0,2.7c-1.7,1.5-3.3,3.1-4.8,4.8c-0.9,1-1.5,0.9-2.4,0c-6.4-6.4-12.8-12.6-19.2-19c-1.2-1.2-1.8-1.2-2.9,0   c-6.1,6.3-12.4,12.5-18.6,18.7c-1.5,1.5-1.5,1.5-3.1,0c-1.5-1.4-2.8-2.9-4.4-4.2c-1.2-1.1-1.3-1.8-0.1-3   c6.4-6.3,12.7-12.8,19.1-19.1c1.1-1,1-1.6,0-2.6c-6.4-6.3-12.7-12.6-19.1-18.9c-1.1-1.1-1.3-1.8-0.1-2.9c1.7-1.4,3.2-3,4.7-4.6   c1-1.1,1.7-1.1,2.8,0c6.2,6.4,12.5,12.6,18.8,19c1.1,1.2,1.8,1.3,3,0c6.3-6.4,12.7-12.6,19-19c1.1-1.1,1.7-1.1,2.8,0   c1.6,1.8,3.3,3.4,5,5.1C113.9,22.5,114.3,22.7,114.3,23.3z"/>
</g>
</svg>