<svg data-name="Layer 1" xmlns="http://www.w3.org/2000/svg" width="23" height="23"><path d="M12.514 18.006v4.7c0 .29-.003.294-.291.294H8.277c-.297 0-.298-.001-.298-.308v-9.377c0-.348 0-.347-.345-.347q-1.51.002-3.02.001c-.276 0-.285-.009-.285-.281v-3.63c0-.286.004-.29.296-.29 1.028 0 2.056-.005 3.083.004.213.002.277-.065.275-.275-.01-.895-.008-1.79-.004-2.685a7.211 7.211 0 0 1 .466-2.773 4.616 4.616 0 0 1 3.49-2.873 9.08 9.08 0 0 1 2.92-.091c.52.056 1.04.123 1.561.174.182.018.255.087.254.275q-.009 1.553 0 3.105c.002.189-.075.24-.25.238-.615-.005-1.231-.017-1.845.01a2.011 2.011 0 0 0-1.648.774 2.074 2.074 0 0 0-.404 1.215c-.015.902-.005 1.804-.012 2.706-.001.184.099.198.24.198q1.731-.004 3.462-.002c.272 0 .28.01.24.266-.19 1.236-.386 2.472-.569 3.71-.026.181-.099.229-.269.228-.937-.006-1.874-.003-2.81-.002-.286 0-.29.005-.291.296q-.002 2.37-.001 4.74z"/></svg>