<svg xmlns:xlink="http://www.w3.org/1999/xlink" xmlns="http://www.w3.org/2000/svg" data-name="Layer 1" width="23" height="23"><SCRIPT xmlns="" id="allow-copy_script"/><path d="M0 11.502V1.874A1.755 1.755 0 0 1 .918.204a1.914 1.914 0 0 1 .95-.201q7.28-.003 14.56 0h4.719a1.723 1.723 0 0 1 1.696 1.023 1.871 1.871 0 0 1 .155.816Q23 11.47 23 21.098a1.736 1.736 0 0 1-1.915 1.897q-3.915.007-7.831.002-5.64 0-11.28-.003a1.974 1.974 0 0 1-1.366-.412 1.784 1.784 0 0 1-.605-1.428Q0 16.328.001 11.502zm12.396-1.306c-.05-.032-.039-.084-.039-.13-.002-.334-.012-.67.002-1.005.008-.217-.064-.294-.286-.292q-1.342.015-2.683 0c-.228-.003-.281.086-.281.296q.007 5.162 0 10.324c0 .226.063.305.297.302q1.377-.017 2.754 0c.227.003.307-.067.305-.3-.01-1.013-.005-2.027-.004-3.041a30.512 30.512 0 0 1 .086-3.085 1.827 1.827 0 0 1 1.648-1.795 1.68 1.68 0 0 1 1.621.495 2.02 2.02 0 0 1 .43 1.076 10.871 10.871 0 0 1 .09 1.455q-.002 2.419 0 4.838c0 .353.002.354.363.354.894 0 1.788-.009 2.682.004.246.004.312-.077.311-.315-.008-2.052.008-4.104-.01-6.156a7.763 7.763 0 0 0-.343-2.36 3.048 3.048 0 0 0-1.94-2.094 4.894 4.894 0 0 0-2.454-.215 3.436 3.436 0 0 0-2.443 1.565c-.024.037-.042.09-.106.079zm-8.805 4.043c0 1.715.003 3.43-.004 5.146 0 .223.062.31.297.307q1.388-.017 2.777 0c.217.001.29-.066.29-.287q-.007-5.17 0-10.34c0-.235-.082-.3-.306-.297-.902.01-1.803.003-2.705.003-.346 0-.349.004-.35.346l.001 5.122zm1.654-7.007a1.988 1.988 0 0 0 1.98-1.958A1.97 1.97 0 0 0 5.263 3.33a1.924 1.924 0 0 0-1.944 1.93 1.956 1.956 0 0 0 1.927 1.973z"/></svg>