<svg xmlns:xlink="http://www.w3.org/1999/xlink" xmlns="http://www.w3.org/2000/svg" data-name="Layer 1" width="23" height="23"><SCRIPT xmlns="" id="allow-copy_script"/><path d="M.004 11.595a11.341 11.341 0 0 1 3.027-7.881 11.572 11.572 0 0 1 3.393-2.547A11.264 11.264 0 0 1 10.47.044 11.558 11.558 0 0 1 21.78 6.32 10.98 10.98 0 0 1 22.9 9.967a11.505 11.505 0 0 1-5.651 11.49 11.102 11.102 0 0 1-4.066 1.419 11.245 11.245 0 0 1-3.984-.112c-.304-.065-.601-.155-.904-.223-.206-.046-.195-.126-.102-.278a11.512 11.512 0 0 0 1.3-2.755c.206-.715.377-1.44.564-2.16.04-.153.082-.306.125-.46.011-.04.012-.092.063-.105.052-.013.072.035.098.068a3.162 3.162 0 0 0 2.84 1.157 5.098 5.098 0 0 0 2.418-.733 5.958 5.958 0 0 0 1.974-1.941 7.995 7.995 0 0 0 1.211-3.819 6.515 6.515 0 0 0-1.144-4.35 6.263 6.263 0 0 0-2.182-1.94 7.577 7.577 0 0 0-3.306-.927 8.654 8.654 0 0 0-4.091.742 6.393 6.393 0 0 0-3.066 2.855 6.624 6.624 0 0 0-.808 3.675 5.328 5.328 0 0 0 1.692 3.689 2.293 2.293 0 0 0 .64.401c.166.072.284.03.33-.153.108-.434.21-.87.32-1.304a.42.42 0 0 0-.11-.359 4.482 4.482 0 0 1-.81-2.693 4.949 4.949 0 0 1 4.305-4.816 5.648 5.648 0 0 1 2.567.18 4.26 4.26 0 0 1 3.033 3.418 6.436 6.436 0 0 1-.887 4.742 3.108 3.108 0 0 1-2.258 1.529 1.92 1.92 0 0 1-1.534-.373 1.598 1.598 0 0 1-.534-1.758c.207-.804.454-1.598.688-2.395a4.83 4.83 0 0 0 .239-1.318A1.45 1.45 0 0 0 9.7 8.896a2.233 2.233 0 0 0-1.178 1.532 3.949 3.949 0 0 0 .055 2.369 1.443 1.443 0 0 1 .033.823q-.613 2.549-1.203 5.103a9.163 9.163 0 0 0-.125 2.971c.015.156.098.368.002.453s-.272-.067-.408-.125a11.294 11.294 0 0 1-4.089-3.031 11.17 11.17 0 0 1-2.47-4.809 9.84 9.84 0 0 1-.313-2.587z"/></svg>