<svg xmlns:xlink="http://www.w3.org/1999/xlink" xmlns="http://www.w3.org/2000/svg" data-name="Layer 1" width="12" height="11.5"><SCRIPT xmlns="" id="allow-copy_script"/><path d="M9.073 11.18a.527.527 0 0 1-.303-.075L6.13 9.72a.246.246 0 0 0-.258-.001q-1.313.696-2.63 1.382a.657.657 0 0 1-.708-.026.648.648 0 0 1-.299-.686q.25-1.489.512-2.976a.186.186 0 0 0-.054-.188C2.12 6.67 1.55 6.11.976 5.556l-.435-.42A.661.661 0 0 1 .354 4.4a.67.67 0 0 1 .585-.457q1.493-.222 2.988-.437a.139.139 0 0 0 .114-.092c.45-.913.896-1.827 1.352-2.736a.681.681 0 0 1 1.185-.05 2.7 2.7 0 0 1 .135.266c.411.831.824 1.662 1.233 2.495a.211.211 0 0 0 .18.129q1.401.2 2.802.403a.867.867 0 0 1 .572.24.669.669 0 0 1-.007.935q-1.003.992-2.017 1.974c-.305.294-.25.17-.185.565.151.922.306 1.843.474 2.761a.678.678 0 0 1-.693.784zM1.028 4.625a.228.228 0 0 0 .075.098q.457.449.916.897.708.69 1.418 1.378a.155.155 0 0 1 .051.151q-.184 1.067-.366 2.135L2.928 10.4c-.004.025-.02.055.004.075.017.015.037-.003.054-.012l1.143-.602 1.796-.942a.146.146 0 0 1 .15 0c.113.062.228.121.342.181l1.46.769 1.12.582c.022.011.045.04.071.02.02-.016.006-.043.003-.066l-.106-.627c-.148-.872-.295-1.744-.446-2.615a.182.182 0 0 1 .06-.184q.446-.424.888-.853.659-.641 1.313-1.287l.136-.131c.02-.02.06-.033.052-.066-.01-.036-.051-.023-.078-.027l-3.244-.472a.16.16 0 0 1-.14-.09c-.1-.206-.203-.41-.304-.615L6.046 1.092c-.011-.022-.016-.057-.05-.053-.026.002-.032.03-.042.051l-.516 1.043-.953 1.935a.12.12 0 0 1-.098.072l-2.36.34-1 .144z" style="fill:#faa41a"/></svg>