<svg xmlns:xlink="http://www.w3.org/1999/xlink" xmlns="http://www.w3.org/2000/svg" id="Layer_1" data-name="Layer 1" width="23" height="22.5"><SCRIPT xmlns="" id="allow-copy_script"/><defs><style>.cls-1{fill:#faa41a}</style></defs><path class="cls-1" d="M23 9.1a1.321 1.321 0 0 1-.439.886q-1.842 1.793-3.678 3.592c-.234.23-.464.465-.7.691a.32.32 0 0 0-.102.322q.521 2.996 1.031 5.994a1.386 1.386 0 0 1-2.019 1.494 581.013 581.013 0 0 1-5.224-2.75.677.677 0 0 0-.734.01c-1.54.825-3.093 1.626-4.64 2.436-.203.106-.4.22-.605.318a1.334 1.334 0 0 1-1.425-.096 1.314 1.314 0 0 1-.574-1.382q.507-3.019 1.038-6.034a.33.33 0 0 0-.125-.35c-.153-.13-.293-.274-.436-.415Q2.399 11.894.433 9.97a1.351 1.351 0 0 1-.246-1.676 1.379 1.379 0 0 1 1.047-.7c2.006-.294 4.01-.59 6.018-.877a.363.363 0 0 0 .308-.236q1.319-2.686 2.643-5.37a1.41 1.41 0 0 1 .972-.828 1.367 1.367 0 0 1 1.59.759c.644 1.279 1.27 2.568 1.904 3.853.272.552.546 1.104.815 1.658a.268.268 0 0 0 .233.158q3.009.435 6.017.877A1.435 1.435 0 0 1 23 9.1zm-5.297 11.618c-.01-.084-.016-.137-.025-.19q-.544-3.217-1.092-6.433a.347.347 0 0 1 .117-.354q.355-.326.699-.664 1.378-1.349 2.754-2.7c.412-.403.827-.802 1.239-1.204.046-.045.128-.085.114-.155-.017-.085-.112-.052-.172-.061q-.912-.14-1.826-.272c-1.542-.223-3.085-.45-4.628-.664a.452.452 0 0 1-.385-.288q-1.248-2.543-2.51-5.08c-.136-.275-.269-.553-.4-.831-.058-.12-.108-.126-.167-.002-.068.145-.141.289-.212.433Q9.83 5.045 8.455 7.838a.268.268 0 0 1-.229.166c-.259.031-.516.075-.775.112l-5.799.844c-.054.008-.138-.02-.153.057-.013.064.058.1.1.142.373.364.745.73 1.121 1.093 1.201 1.156 2.388 2.328 3.583 3.49a.397.397 0 0 1 .125.393q-.555 3.185-1.098 6.37c-.015.088-.086.208-.007.263.076.054.17-.046.25-.088q2.89-1.514 5.779-3.035a.29.29 0 0 1 .314 0c.393.217.793.42 1.19.628l3.518 1.854q.587.309 1.177.611c.056.029.153.118.152-.02z"/><path class="cls-1" d="M11.313 1.156 7.844 7.344.906 8.781l4.558 5.129-.623 7.433 6.663-2.948 6.291 3.155.54-.757-1.038-6.758 5.107-4.983-1.162-.83-6.644-1.287-2.782-5.779h-.503z"/></svg>