<svg xmlns:xlink="http://www.w3.org/1999/xlink" xmlns="http://www.w3.org/2000/svg" data-name="Layer 1" width="23" height="23"><SCRIPT xmlns="" id="allow-copy_script"/><path d="M0 18.783a9.737 9.737 0 0 0 6.91-1.972 5.048 5.048 0 0 1-1.294-.218 4.715 4.715 0 0 1-3.023-2.815c-.111-.27-.1-.284.2-.245a4.723 4.723 0 0 0 1.514-.048c.068-.013.136-.03.263-.057-.204-.065-.355-.108-.502-.163A4.66 4.66 0 0 1 .91 9.534c-.039-.208-.05-.42-.076-.63-.023-.176.042-.194.19-.127a5.173 5.173 0 0 0 .988.372 4.951 4.951 0 0 0 .873.132c-.035-.096-.116-.128-.175-.177A4.74 4.74 0 0 1 .895 5.741a4.584 4.584 0 0 1 .522-2.594c.103-.197.123-.199.267-.027a13.385 13.385 0 0 0 6.49 4.25 13.863 13.863 0 0 0 2.78.521c.314.03.336.001.29-.318a4.738 4.738 0 0 1 3.984-5.43 4.655 4.655 0 0 1 4.057 1.302.323.323 0 0 0 .338.095 9.626 9.626 0 0 0 2.484-.944.598.598 0 0 1 .306-.115 4.847 4.847 0 0 1-1.92 2.514 5.874 5.874 0 0 0 1.272-.226c.415-.11.813-.273 1.218-.42.05.1-.027.142-.063.194A9.76 9.76 0 0 1 20.925 6.6a.493.493 0 0 0-.208.449 13.527 13.527 0 0 1-.683 4.538A13.79 13.79 0 0 1 17.2 16.55a12.67 12.67 0 0 1-5.05 3.489 13.754 13.754 0 0 1-3.495.807 14.099 14.099 0 0 1-4.25-.225A12.899 12.899 0 0 1 .09 18.888a.598.598 0 0 1-.07-.048c-.008-.007-.009-.024-.021-.056z"/></svg>