<svg data-name="Layer 1" xmlns="http://www.w3.org/2000/svg" width="17" height="17"><path d="M8.587 16.865a8.386 8.386 0 0 1-3.99-.945.391.391 0 0 0-.303-.028q-2.068.545-4.137 1.081c-.178.047-.179.045-.129-.137l1.092-3.97a.506.506 0 0 0-.044-.404A8.495 8.495 0 0 1 .809 4.95a8.384 8.384 0 0 1 1.984-2.72 8.392 8.392 0 0 1 12.097.725 8.434 8.434 0 0 1 1.892 3.648 8.052 8.052 0 0 1-.116 4.153 8.275 8.275 0 0 1-2.272 3.729 8.486 8.486 0 0 1-4.931 2.335 5.576 5.576 0 0 1-.876.045zm-.058-1.428a3.734 3.734 0 0 0 .79-.046 7.036 7.036 0 0 0 4.529-2.416 6.676 6.676 0 0 0 1.66-5.309 6.91 6.91 0 0 0-2.6-4.634 6.74 6.74 0 0 0-3.835-1.556 6.967 6.967 0 0 0-6.946 4.075A6.934 6.934 0 0 0 1.59 9.57a7.14 7.14 0 0 0 1.042 2.695.403.403 0 0 1 .053.35c-.204.729-.402 1.46-.601 2.19-.052.19-.046.197.145.147.738-.194 1.477-.384 2.213-.587a.49.49 0 0 1 .416.057 7.084 7.084 0 0 0 3.67 1.015z"/><path d="M10.735 12.496a4.615 4.615 0 0 1-1.872-.476 8.267 8.267 0 0 1-3.318-2.618 7.725 7.725 0 0 1-1.057-1.614 2.713 2.713 0 0 1-.137-2.103 2.195 2.195 0 0 1 .696-.968A1.192 1.192 0 0 1 6.1 4.582a.412.412 0 0 1 .26.276q.338.801.671 1.604a.561.561 0 0 1-.04.51 4.109 4.109 0 0 1-.485.63.328.328 0 0 0-.028.465 5.17 5.17 0 0 0 1.877 1.917c.297.17.598.335.903.492.273.14.367.117.565-.122.189-.228.371-.46.554-.693a.366.366 0 0 1 .506-.15c.198.077.39.17.583.262.352.168.702.342 1.054.509a.38.38 0 0 1 .24.39c-.006.996-.58 1.512-1.562 1.784a1.505 1.505 0 0 1-.463.04z"/></svg>